<mxfile host="app.diagrams.net" modified="2024-06-24T16:11:22.918Z" agent="Mozilla/5.0 (Windows NT 10.0; Win64; x64; rv:127.0) Gecko/20100101 Firefox/127.0" etag="yH25sV-WryoA43A2wdiC" version="24.6.2" type="github">
  <diagram name="Page-1" id="nrMohRXkfmWptk8Ia3cE">
    <mxGraphModel dx="2750" dy="2730" grid="1" gridSize="1" guides="1" tooltips="1" connect="1" arrows="1" fold="1" page="1" pageScale="1" pageWidth="850" pageHeight="1100" math="0" shadow="0">
      <root>
        <mxCell id="0" />
        <mxCell id="1" parent="0" />
        <mxCell id="9EuuWl_7FSERNrRJokhg-1" value="Start" style="ellipse;whiteSpace=wrap;html=1;fontStyle=1" vertex="1" parent="1">
          <mxGeometry x="-1682" y="-2193" width="88" height="51" as="geometry" />
        </mxCell>
      </root>
    </mxGraphModel>
  </diagram>
</mxfile>
